<mxfile host="65bd71144e">
    <diagram id="t4B4wnCruLZ6Y6lPsfn-" name="ページ2">
        <mxGraphModel dx="1768" dy="1915" grid="1" gridSize="10" guides="1" tooltips="1" connect="1" arrows="1" fold="1" page="1" pageScale="1" pageWidth="827" pageHeight="1169" math="0" shadow="0">
            <root>
                <mxCell id="GyRWUpsRwullxOFlIDxe-0"/>
                <mxCell id="GyRWUpsRwullxOFlIDxe-1" parent="GyRWUpsRwullxOFlIDxe-0"/>
                <mxCell id="GyRWUpsRwullxOFlIDxe-6" value="answer" style="swimlane;fontStyle=0;childLayout=stackLayout;horizontal=1;startSize=26;horizontalStack=0;resizeParent=1;resizeParentMax=0;resizeLast=0;collapsible=1;marginBottom=0;align=center;fontSize=14;" parent="GyRWUpsRwullxOFlIDxe-1" vertex="1">
                    <mxGeometry x="360" y="110" width="160" height="116" as="geometry"/>
                </mxCell>
                <mxCell id="GyRWUpsRwullxOFlIDxe-7" value="text" style="text;strokeColor=none;fillColor=none;spacingLeft=4;spacingRight=4;overflow=hidden;rotatable=0;points=[[0,0.5],[1,0.5]];portConstraint=eastwest;fontSize=12;" parent="GyRWUpsRwullxOFlIDxe-6" vertex="1">
                    <mxGeometry y="26" width="160" height="30" as="geometry"/>
                </mxCell>
                <mxCell id="68gOTqaKWOkILATAaMOX-2" value="user_id" style="text;strokeColor=none;fillColor=none;spacingLeft=4;spacingRight=4;overflow=hidden;rotatable=0;points=[[0,0.5],[1,0.5]];portConstraint=eastwest;fontSize=12;" parent="GyRWUpsRwullxOFlIDxe-6" vertex="1">
                    <mxGeometry y="56" width="160" height="30" as="geometry"/>
                </mxCell>
                <mxCell id="-RR94L3K3ZirzpsDjrRM-3" value="question_id" style="text;strokeColor=none;fillColor=none;spacingLeft=4;spacingRight=4;overflow=hidden;rotatable=0;points=[[0,0.5],[1,0.5]];portConstraint=eastwest;fontSize=12;" parent="GyRWUpsRwullxOFlIDxe-6" vertex="1">
                    <mxGeometry y="86" width="160" height="30" as="geometry"/>
                </mxCell>
                <mxCell id="GyRWUpsRwullxOFlIDxe-10" value="question" style="swimlane;fontStyle=0;childLayout=stackLayout;horizontal=1;startSize=26;horizontalStack=0;resizeParent=1;resizeParentMax=0;resizeLast=0;collapsible=1;marginBottom=0;align=center;fontSize=14;" parent="GyRWUpsRwullxOFlIDxe-1" vertex="1">
                    <mxGeometry x="-120" y="110" width="160" height="176" as="geometry"/>
                </mxCell>
                <mxCell id="GyRWUpsRwullxOFlIDxe-11" value="url" style="text;strokeColor=none;fillColor=none;spacingLeft=4;spacingRight=4;overflow=hidden;rotatable=0;points=[[0,0.5],[1,0.5]];portConstraint=eastwest;fontSize=12;" parent="GyRWUpsRwullxOFlIDxe-10" vertex="1">
                    <mxGeometry y="26" width="160" height="30" as="geometry"/>
                </mxCell>
                <mxCell id="GyRWUpsRwullxOFlIDxe-12" value="time" style="text;strokeColor=none;fillColor=none;spacingLeft=4;spacingRight=4;overflow=hidden;rotatable=0;points=[[0,0.5],[1,0.5]];portConstraint=eastwest;fontSize=12;" parent="GyRWUpsRwullxOFlIDxe-10" vertex="1">
                    <mxGeometry y="56" width="160" height="30" as="geometry"/>
                </mxCell>
                <mxCell id="GyRWUpsRwullxOFlIDxe-13" value="text" style="text;strokeColor=none;fillColor=none;spacingLeft=4;spacingRight=4;overflow=hidden;rotatable=0;points=[[0,0.5],[1,0.5]];portConstraint=eastwest;fontSize=12;" parent="GyRWUpsRwullxOFlIDxe-10" vertex="1">
                    <mxGeometry y="86" width="160" height="30" as="geometry"/>
                </mxCell>
                <mxCell id="0" value="category" style="text;strokeColor=none;fillColor=none;spacingLeft=4;spacingRight=4;overflow=hidden;rotatable=0;points=[[0,0.5],[1,0.5]];portConstraint=eastwest;fontSize=12;" parent="GyRWUpsRwullxOFlIDxe-10" vertex="1">
                    <mxGeometry y="116" width="160" height="30" as="geometry"/>
                </mxCell>
                <mxCell id="jB3JMa5fjRWTT65x4QC4-1" value="user_id" style="text;strokeColor=none;fillColor=none;spacingLeft=4;spacingRight=4;overflow=hidden;rotatable=0;points=[[0,0.5],[1,0.5]];portConstraint=eastwest;fontSize=12;" parent="GyRWUpsRwullxOFlIDxe-10" vertex="1">
                    <mxGeometry y="146" width="160" height="30" as="geometry"/>
                </mxCell>
                <mxCell id="GyRWUpsRwullxOFlIDxe-14" value="user" style="swimlane;fontStyle=0;childLayout=stackLayout;horizontal=1;startSize=26;horizontalStack=0;resizeParent=1;resizeParentMax=0;resizeLast=0;collapsible=1;marginBottom=0;align=center;fontSize=14;" parent="GyRWUpsRwullxOFlIDxe-1" vertex="1">
                    <mxGeometry x="120" y="110" width="160" height="120" as="geometry"/>
                </mxCell>
                <mxCell id="GyRWUpsRwullxOFlIDxe-15" value="nickname" style="text;strokeColor=none;fillColor=none;spacingLeft=4;spacingRight=4;overflow=hidden;rotatable=0;points=[[0,0.5],[1,0.5]];portConstraint=eastwest;fontSize=12;" parent="GyRWUpsRwullxOFlIDxe-14" vertex="1">
                    <mxGeometry y="26" width="160" height="30" as="geometry"/>
                </mxCell>
                <mxCell id="-RR94L3K3ZirzpsDjrRM-0" value="email" style="text;strokeColor=none;fillColor=none;spacingLeft=4;spacingRight=4;overflow=hidden;rotatable=0;points=[[0,0.5],[1,0.5]];portConstraint=eastwest;fontSize=12;" parent="GyRWUpsRwullxOFlIDxe-14" vertex="1">
                    <mxGeometry y="56" width="160" height="30" as="geometry"/>
                </mxCell>
                <mxCell id="GyRWUpsRwullxOFlIDxe-16" value="encrypted_password" style="text;strokeColor=none;fillColor=none;spacingLeft=4;spacingRight=4;overflow=hidden;rotatable=0;points=[[0,0.5],[1,0.5]];portConstraint=eastwest;fontSize=12;" parent="GyRWUpsRwullxOFlIDxe-14" vertex="1">
                    <mxGeometry y="86" width="160" height="34" as="geometry"/>
                </mxCell>
                <mxCell id="68gOTqaKWOkILATAaMOX-4" value="" style="edgeStyle=none;rounded=0;orthogonalLoop=1;jettySize=auto;html=1;startArrow=ERone;startFill=0;endArrow=ERmany;endFill=0;strokeColor=#FFFFFF;exitX=0;exitY=0.5;exitDx=0;exitDy=0;entryX=1;entryY=0.5;entryDx=0;entryDy=0;" parent="GyRWUpsRwullxOFlIDxe-1" source="-RR94L3K3ZirzpsDjrRM-0" target="GyRWUpsRwullxOFlIDxe-12" edge="1">
                    <mxGeometry relative="1" as="geometry"/>
                </mxCell>
                <mxCell id="-RR94L3K3ZirzpsDjrRM-2" value="" style="edgeStyle=none;rounded=0;orthogonalLoop=1;jettySize=auto;html=1;startArrow=ERone;startFill=0;endArrow=ERmany;endFill=0;strokeColor=#FFFFFF;exitX=1;exitY=0.5;exitDx=0;exitDy=0;entryX=0;entryY=0.5;entryDx=0;entryDy=0;" parent="GyRWUpsRwullxOFlIDxe-1" source="-RR94L3K3ZirzpsDjrRM-0" target="68gOTqaKWOkILATAaMOX-2" edge="1">
                    <mxGeometry relative="1" as="geometry">
                        <mxPoint x="320.96000000000004" y="140.00199999999995" as="sourcePoint"/>
                        <mxPoint x="320" y="297.01" as="targetPoint"/>
                    </mxGeometry>
                </mxCell>
                <mxCell id="-RR94L3K3ZirzpsDjrRM-4" value="" style="edgeStyle=none;rounded=0;orthogonalLoop=1;jettySize=auto;html=1;startArrow=ERone;startFill=0;endArrow=ERmany;endFill=0;strokeColor=#FFFFFF;exitX=1;exitY=0.5;exitDx=0;exitDy=0;" parent="GyRWUpsRwullxOFlIDxe-1" source="jB3JMa5fjRWTT65x4QC4-1" target="-RR94L3K3ZirzpsDjrRM-3" edge="1">
                    <mxGeometry relative="1" as="geometry">
                        <mxPoint x="330" y="320" as="sourcePoint"/>
                        <mxPoint x="494" y="256" as="targetPoint"/>
                        <Array as="points">
                            <mxPoint x="439" y="271"/>
                        </Array>
                    </mxGeometry>
                </mxCell>
                <mxCell id="1" value="like" style="swimlane;fontStyle=0;childLayout=stackLayout;horizontal=1;startSize=26;horizontalStack=0;resizeParent=1;resizeParentMax=0;resizeLast=0;collapsible=1;marginBottom=0;align=center;fontSize=14;" parent="GyRWUpsRwullxOFlIDxe-1" vertex="1">
                    <mxGeometry x="-120" y="-60" width="160" height="86" as="geometry"/>
                </mxCell>
                <mxCell id="3" value="user_id" style="text;strokeColor=none;fillColor=none;spacingLeft=4;spacingRight=4;overflow=hidden;rotatable=0;points=[[0,0.5],[1,0.5]];portConstraint=eastwest;fontSize=12;" parent="1" vertex="1">
                    <mxGeometry y="26" width="160" height="30" as="geometry"/>
                </mxCell>
                <mxCell id="4" value="question_id" style="text;strokeColor=none;fillColor=none;spacingLeft=4;spacingRight=4;overflow=hidden;rotatable=0;points=[[0,0.5],[1,0.5]];portConstraint=eastwest;fontSize=12;" parent="1" vertex="1">
                    <mxGeometry y="56" width="160" height="30" as="geometry"/>
                </mxCell>
                <mxCell id="5" value="" style="edgeStyle=none;rounded=0;orthogonalLoop=1;jettySize=auto;html=1;startArrow=ERone;startFill=0;endArrow=ERmany;endFill=0;strokeColor=#FFFFFF;exitX=0.25;exitY=0;exitDx=0;exitDy=0;entryX=1;entryY=0.5;entryDx=0;entryDy=0;" parent="GyRWUpsRwullxOFlIDxe-1" source="GyRWUpsRwullxOFlIDxe-14" target="4" edge="1">
                    <mxGeometry relative="1" as="geometry">
                        <mxPoint x="70.96000000000004" y="170.00199999999995" as="sourcePoint"/>
                        <mxPoint x="30" y="20" as="targetPoint"/>
                        <Array as="points">
                            <mxPoint x="160" y="10"/>
                        </Array>
                    </mxGeometry>
                </mxCell>
                <mxCell id="6" value="" style="edgeStyle=none;rounded=0;orthogonalLoop=1;jettySize=auto;html=1;startArrow=ERone;startFill=0;endArrow=ERmany;endFill=0;strokeColor=#FFFFFF;exitX=0.5;exitY=0;exitDx=0;exitDy=0;" parent="GyRWUpsRwullxOFlIDxe-1" source="GyRWUpsRwullxOFlIDxe-10" target="4" edge="1">
                    <mxGeometry relative="1" as="geometry">
                        <mxPoint x="-60" y="108" as="sourcePoint"/>
                        <mxPoint x="-70" y="36" as="targetPoint"/>
                        <Array as="points"/>
                    </mxGeometry>
                </mxCell>
                <mxCell id="7" value="favorite" style="swimlane;fontStyle=0;childLayout=stackLayout;horizontal=1;startSize=26;horizontalStack=0;resizeParent=1;resizeParentMax=0;resizeLast=0;collapsible=1;marginBottom=0;align=center;fontSize=14;" parent="GyRWUpsRwullxOFlIDxe-1" vertex="1">
                    <mxGeometry x="360" y="-60" width="160" height="86" as="geometry"/>
                </mxCell>
                <mxCell id="8" value="user_id" style="text;strokeColor=none;fillColor=none;spacingLeft=4;spacingRight=4;overflow=hidden;rotatable=0;points=[[0,0.5],[1,0.5]];portConstraint=eastwest;fontSize=12;" parent="7" vertex="1">
                    <mxGeometry y="26" width="160" height="30" as="geometry"/>
                </mxCell>
                <mxCell id="9" value="answer_id" style="text;strokeColor=none;fillColor=none;spacingLeft=4;spacingRight=4;overflow=hidden;rotatable=0;points=[[0,0.5],[1,0.5]];portConstraint=eastwest;fontSize=12;" parent="7" vertex="1">
                    <mxGeometry y="56" width="160" height="30" as="geometry"/>
                </mxCell>
                <mxCell id="10" value="" style="edgeStyle=none;rounded=0;orthogonalLoop=1;jettySize=auto;html=1;startArrow=ERone;startFill=0;endArrow=ERmany;endFill=0;strokeColor=#FFFFFF;exitX=0.75;exitY=0;exitDx=0;exitDy=0;entryX=0;entryY=0.5;entryDx=0;entryDy=0;" parent="GyRWUpsRwullxOFlIDxe-1" source="GyRWUpsRwullxOFlIDxe-14" target="9" edge="1">
                    <mxGeometry relative="1" as="geometry">
                        <mxPoint x="220" y="70" as="sourcePoint"/>
                        <mxPoint x="130" y="70" as="targetPoint"/>
                        <Array as="points">
                            <mxPoint x="240" y="11"/>
                        </Array>
                    </mxGeometry>
                </mxCell>
                <mxCell id="11" value="" style="edgeStyle=none;rounded=0;orthogonalLoop=1;jettySize=auto;html=1;startArrow=ERone;startFill=0;endArrow=ERmany;endFill=0;strokeColor=#FFFFFF;exitX=0.5;exitY=0;exitDx=0;exitDy=0;" parent="GyRWUpsRwullxOFlIDxe-1" source="GyRWUpsRwullxOFlIDxe-6" target="9" edge="1">
                    <mxGeometry relative="1" as="geometry">
                        <mxPoint x="490" y="110" as="sourcePoint"/>
                        <mxPoint x="436" y="20" as="targetPoint"/>
                        <Array as="points"/>
                    </mxGeometry>
                </mxCell>
                <mxCell id="12" value="comment" style="swimlane;fontStyle=0;childLayout=stackLayout;horizontal=1;startSize=26;horizontalStack=0;resizeParent=1;resizeParentMax=0;resizeLast=0;collapsible=1;marginBottom=0;align=center;fontSize=14;" vertex="1" parent="GyRWUpsRwullxOFlIDxe-1">
                    <mxGeometry x="360" y="300" width="160" height="116" as="geometry"/>
                </mxCell>
                <mxCell id="13" value="text" style="text;strokeColor=none;fillColor=none;spacingLeft=4;spacingRight=4;overflow=hidden;rotatable=0;points=[[0,0.5],[1,0.5]];portConstraint=eastwest;fontSize=12;" vertex="1" parent="12">
                    <mxGeometry y="26" width="160" height="30" as="geometry"/>
                </mxCell>
                <mxCell id="15" value="user_id" style="text;strokeColor=none;fillColor=none;spacingLeft=4;spacingRight=4;overflow=hidden;rotatable=0;points=[[0,0.5],[1,0.5]];portConstraint=eastwest;fontSize=12;" vertex="1" parent="12">
                    <mxGeometry y="56" width="160" height="30" as="geometry"/>
                </mxCell>
                <mxCell id="14" value="question_id" style="text;strokeColor=none;fillColor=none;spacingLeft=4;spacingRight=4;overflow=hidden;rotatable=0;points=[[0,0.5],[1,0.5]];portConstraint=eastwest;fontSize=12;" vertex="1" parent="12">
                    <mxGeometry y="86" width="160" height="30" as="geometry"/>
                </mxCell>
                <mxCell id="16" value="" style="edgeStyle=none;rounded=0;orthogonalLoop=1;jettySize=auto;html=1;startArrow=ERone;startFill=0;endArrow=ERmany;endFill=0;strokeColor=#FFFFFF;entryX=0;entryY=0.5;entryDx=0;entryDy=0;" edge="1" parent="GyRWUpsRwullxOFlIDxe-1" source="GyRWUpsRwullxOFlIDxe-16" target="13">
                    <mxGeometry relative="1" as="geometry">
                        <mxPoint x="240" y="220" as="sourcePoint"/>
                        <mxPoint x="340" y="340" as="targetPoint"/>
                        <Array as="points">
                            <mxPoint x="200" y="341"/>
                        </Array>
                    </mxGeometry>
                </mxCell>
                <mxCell id="17" value="" style="edgeStyle=none;rounded=0;orthogonalLoop=1;jettySize=auto;html=1;startArrow=ERone;startFill=0;endArrow=ERmany;endFill=0;strokeColor=#FFFFFF;entryX=0;entryY=0.5;entryDx=0;entryDy=0;" edge="1" parent="GyRWUpsRwullxOFlIDxe-1" source="jB3JMa5fjRWTT65x4QC4-1" target="15">
                    <mxGeometry relative="1" as="geometry">
                        <mxPoint x="190" y="260" as="sourcePoint"/>
                        <mxPoint x="350" y="371" as="targetPoint"/>
                        <Array as="points">
                            <mxPoint x="-40" y="371"/>
                        </Array>
                    </mxGeometry>
                </mxCell>
            </root>
        </mxGraphModel>
    </diagram>
</mxfile>